<mxfile host="app.diagrams.net" agent="Mozilla/5.0 (Macintosh; Intel Mac OS X 10_15_7) AppleWebKit/537.36 (KHTML, like Gecko) Chrome/133.0.0.0 Safari/537.36 Edg/133.0.0.0" version="26.0.16">
  <diagram name="第 1 页" id="C522jLxO3X1eY6COn24u">
    <mxGraphModel dx="1187" dy="720" grid="1" gridSize="10" guides="1" tooltips="1" connect="1" arrows="1" fold="1" page="1" pageScale="1" pageWidth="827" pageHeight="1169" math="0" shadow="0">
      <root>
        <mxCell id="0" />
        <mxCell id="1" parent="0" />
        <mxCell id="pQeS54v3dMwzsUaev0WR-3" value="" style="edgeStyle=orthogonalEdgeStyle;rounded=0;orthogonalLoop=1;jettySize=auto;html=1;" edge="1" parent="1" source="pQeS54v3dMwzsUaev0WR-1" target="pQeS54v3dMwzsUaev0WR-2">
          <mxGeometry relative="1" as="geometry" />
        </mxCell>
        <mxCell id="pQeS54v3dMwzsUaev0WR-5" value="" style="edgeStyle=orthogonalEdgeStyle;rounded=0;orthogonalLoop=1;jettySize=auto;html=1;" edge="1" parent="1" source="pQeS54v3dMwzsUaev0WR-1" target="pQeS54v3dMwzsUaev0WR-4">
          <mxGeometry relative="1" as="geometry" />
        </mxCell>
        <mxCell id="pQeS54v3dMwzsUaev0WR-1" value="输入层" style="rounded=0;whiteSpace=wrap;html=1;" vertex="1" parent="1">
          <mxGeometry x="130" y="80" width="100" height="40" as="geometry" />
        </mxCell>
        <mxCell id="pQeS54v3dMwzsUaev0WR-2" value="输入维度&lt;div&gt;[ 时间步长 * 特征]&lt;/div&gt;" style="rounded=0;whiteSpace=wrap;html=1;" vertex="1" parent="1">
          <mxGeometry x="270" y="80" width="100" height="40" as="geometry" />
        </mxCell>
        <mxCell id="pQeS54v3dMwzsUaev0WR-7" value="" style="edgeStyle=orthogonalEdgeStyle;rounded=0;orthogonalLoop=1;jettySize=auto;html=1;" edge="1" parent="1" source="pQeS54v3dMwzsUaev0WR-4" target="pQeS54v3dMwzsUaev0WR-6">
          <mxGeometry relative="1" as="geometry" />
        </mxCell>
        <mxCell id="pQeS54v3dMwzsUaev0WR-4" value="特征注意力层" style="rounded=0;whiteSpace=wrap;html=1;" vertex="1" parent="1">
          <mxGeometry x="130" y="150" width="100" height="40" as="geometry" />
        </mxCell>
        <mxCell id="pQeS54v3dMwzsUaev0WR-9" value="" style="edgeStyle=orthogonalEdgeStyle;rounded=0;orthogonalLoop=1;jettySize=auto;html=1;" edge="1" parent="1" source="pQeS54v3dMwzsUaev0WR-6" target="pQeS54v3dMwzsUaev0WR-8">
          <mxGeometry relative="1" as="geometry" />
        </mxCell>
        <mxCell id="pQeS54v3dMwzsUaev0WR-6" value="CNN层" style="rounded=0;whiteSpace=wrap;html=1;" vertex="1" parent="1">
          <mxGeometry x="130" y="220" width="100" height="40" as="geometry" />
        </mxCell>
        <mxCell id="pQeS54v3dMwzsUaev0WR-11" value="" style="edgeStyle=orthogonalEdgeStyle;rounded=0;orthogonalLoop=1;jettySize=auto;html=1;" edge="1" parent="1" source="pQeS54v3dMwzsUaev0WR-8" target="pQeS54v3dMwzsUaev0WR-10">
          <mxGeometry relative="1" as="geometry" />
        </mxCell>
        <mxCell id="pQeS54v3dMwzsUaev0WR-8" value="LSTM层" style="rounded=0;whiteSpace=wrap;html=1;" vertex="1" parent="1">
          <mxGeometry x="130" y="290" width="100" height="40" as="geometry" />
        </mxCell>
        <mxCell id="pQeS54v3dMwzsUaev0WR-13" value="" style="edgeStyle=orthogonalEdgeStyle;rounded=0;orthogonalLoop=1;jettySize=auto;html=1;" edge="1" parent="1" source="pQeS54v3dMwzsUaev0WR-10" target="pQeS54v3dMwzsUaev0WR-12">
          <mxGeometry relative="1" as="geometry" />
        </mxCell>
        <mxCell id="pQeS54v3dMwzsUaev0WR-10" value="时间注意力层" style="rounded=0;whiteSpace=wrap;html=1;" vertex="1" parent="1">
          <mxGeometry x="130" y="360" width="100" height="40" as="geometry" />
        </mxCell>
        <mxCell id="pQeS54v3dMwzsUaev0WR-15" value="" style="edgeStyle=orthogonalEdgeStyle;rounded=0;orthogonalLoop=1;jettySize=auto;html=1;" edge="1" parent="1" source="pQeS54v3dMwzsUaev0WR-12" target="pQeS54v3dMwzsUaev0WR-14">
          <mxGeometry relative="1" as="geometry" />
        </mxCell>
        <mxCell id="pQeS54v3dMwzsUaev0WR-12" value="全连接层" style="rounded=0;whiteSpace=wrap;html=1;" vertex="1" parent="1">
          <mxGeometry x="130" y="430" width="100" height="40" as="geometry" />
        </mxCell>
        <mxCell id="pQeS54v3dMwzsUaev0WR-14" value="输出" style="rounded=0;whiteSpace=wrap;html=1;" vertex="1" parent="1">
          <mxGeometry x="130" y="500" width="100" height="40" as="geometry" />
        </mxCell>
      </root>
    </mxGraphModel>
  </diagram>
</mxfile>
